PathFileType	4	(X/Y/Z)	s07c0101.trc
DataRate	CameraRate	NumFrames	NumMarkers	Units	OrigDataRate	OrigDataStartFrame	OrigNumFrames
200	200	4	48	mm	200	1000	2000
Frame#	Time	racr			lacr			c7			jug			rlel			rdr			llel			ldr			s2			lic			ric			lasi			rasi			rpsi			lpsi			rgt			lgt			rth1			rth2			rth3			rth4			rlfc			rmfc			rsh1			rsh2			rsh3			rsh4			rlmal			rcal			rtoe			rmt5			lth1			lth2			lth4			lth3			llfc			lmfc			lsh1			lsh2			lsh3			lsh4			llmal			lcal			ltoe			lmt5			SBIKE			LBIKE			RBIKE			
		X1	Y1	Z1	X2	Y2	Z2	X3	Y3	Z3	X4	Y4	Z4	X5	Y5	Z5	X6	Y6	Z6	X7	Y7	Z7	X8	Y8	Z8	X9	Y9	Z9	X10	Y10	Z10	X11	Y11	Z11	X12	Y12	Z12	X13	Y13	Z13	X14	Y14	Z14	X15	Y15	Z15	X16	Y16	Z16	X17	Y17	Z17	X18	Y18	Z18	X19	Y19	Z19	X20	Y20	Z20	X21	Y21	Z21	X22	Y22	Z22	X23	Y23	Z23	X24	Y24	Z24	X25	Y25	Z25	X26	Y26	Z26	X27	Y27	Z27	X28	Y28	Z28	X29	Y29	Z29	X30	Y30	Z30	X31	Y31	Z31	X32	Y32	Z32	X33	Y33	Z33	X34	Y34	Z34	X35	Y35	Z35	X36	Y36	Z36	X37	Y37	Z37	X38	Y38	Z38	X39	Y39	Z39	X40	Y40	Z40	X41	Y41	Z41	X42	Y42	Z42	X43	Y43	Z43	X44	Y44	Z44	X45	Y45	Z45	X46	Y46	Z46	X47	Y47	Z47	X48	Y48	Z48	
1000	5.0000	480.112973	1414.405315	-110.354852	465.178592	1420.342639	-373.714845	433.261677	1478.712564	-235.116014	373.599662	1337.480451	-246.338019	505.460006	1094.082371	47.200668	712.432564	915.011203	-61.614101	509.555774	1111.633530	-531.907153	713.094311	913.563133	-429.217913	-143.343671	1208.966415	-218.599752	2.950938	1290.708035	-371.239958	39.273518	1242.035952	-87.387003	28.224990	1217.375774	-358.447492	58.376223	1199.366911	-108.617923	-112.301843	1245.505367	-166.283732	-118.581413	1268.463789	-271.792859	3.709311	1117.432414	-50.166792	-48.905228	1131.545516	-408.357637	128.809241	1040.086860	-53.858477	209.797119	1008.932641	-67.968162	267.145690	945.559708	-69.470977	226.557020	1036.246657	-86.489456	355.708912	839.267446	-105.714742	338.837493	822.344752	-209.607983	264.376245	732.057248	-77.006896	225.721621	653.185149	-87.547766	154.795531	602.443712	-79.206361	238.023307	643.008466	-125.647007	66.431410	504.249989	-72.283738	1.911243	541.404135	-103.628241	112.029509	272.769640	-127.348323	51.463832	326.866821	-54.249816	35.256815	1031.481824	-422.514551	111.824785	988.136072	-426.395446	137.401678	1013.548870	-419.992181	157.530160	911.831218	-422.711538	270.723207	779.052696	-396.677046	265.793672	759.081502	-303.130847	244.296414	632.225055	-419.637152	255.238942	548.705197	-401.015981	222.436412	464.457384	-406.095330	258.607371	551.555308	-358.935147	196.250135	329.721768	-402.602768	136.158388	276.116327	-371.058534	422.824405	321.128056	-360.843419	351.696961	277.627166	-427.200447	-263.632441	977.742421	-234.921115	-82.616150	78.918362	-434.889276	-82.565883	78.914387	-37.455897	
1001	5.0050	477.999302	1416.572445	-107.530971	466.400153	1421.566821	-371.904003	432.702230	1481.451225	-233.479411	372.151393	1340.638259	-245.238640	505.238907	1094.852130	46.690234	712.457787	915.199944	-62.041999	510.828590	1113.178616	-532.036216	712.993837	913.741905	-429.762999	-142.142119	1208.607952	-221.501123	2.601445	1289.810944	-373.771157	38.563852	1243.504898	-87.597648	30.187757	1215.908474	-360.798780	58.668660	1200.326592	-111.189393	-111.551961	1245.328599	-169.397738	-117.112659	1267.547818	-275.204241	4.436472	1118.629602	-51.942935	-47.456619	1129.223720	-410.152094	130.663792	1043.024522	-55.356486	212.387634	1013.567945	-69.537778	270.829868	951.258046	-71.484216	229.177547	1042.169028	-86.512900	361.648037	847.121246	-107.188508	345.268779	830.185669	-210.809726	270.093091	740.575861	-78.139673	230.737266	661.914595	-88.642503	159.481981	611.833073	-80.082804	243.033594	651.668947	-126.704947	70.499227	514.273558	-72.894516	6.097675	551.973878	-104.278290	115.124884	282.811478	-127.421242	54.738943	337.281801	-54.449535	34.114362	1027.524685	-424.366376	109.634551	981.962184	-428.369707	135.959263	1006.663960	-422.198843	153.143394	904.485556	-424.663701	263.422043	769.243075	-398.281036	259.014266	750.098113	-305.746247	238.298083	622.699118	-420.902630	250.288128	539.188961	-402.221322	218.295643	454.737990	-407.191793	252.757762	542.556473	-359.915662	193.324897	319.458939	-403.100600	133.107301	266.325611	-371.537508	419.936590	310.300956	-360.675121	348.834247	267.149263	-427.306162	-263.615149	977.793250	-235.237423	-82.609610	78.884066	-434.923517	-82.582945	78.952021	-37.473488	
1002	5.0100	475.670631	1418.953520	-104.433002	467.687343	1422.889801	-369.689175	431.860144	1483.953732	-231.425845	371.208374	1343.227099	-243.727253	505.025459	1095.395363	45.868567	712.510505	915.493095	-62.593302	512.103041	1114.923911	-532.006529	712.948255	913.926738	-430.281943	-140.825526	1208.157688	-224.681415	-6.569276	1291.115386	-374.631276	37.820352	1244.302562	-89.844988	32.606503	1213.817245	-363.479924	58.895155	1201.459095	-113.254985	-110.808227	1245.304843	-172.723985	-115.618273	1266.709597	-278.822384	5.369051	1120.023468	-53.692660	-45.804419	1126.946373	-411.993585	132.462647	1046.478462	-57.480197	214.825560	1018.590636	-71.386422	274.402285	957.347983	-73.515970	231.359727	1047.801294	-87.063783	367.211478	855.296752	-108.287747	351.402502	838.739488	-211.852823	275.758294	749.230603	-79.367338	235.852777	670.918374	-89.805849	164.559890	621.278575	-81.026951	248.479141	660.558838	-127.661989	74.742430	524.246103	-73.535338	10.161937	562.091322	-104.955341	118.987562	292.938704	-127.657609	58.705262	347.592812	-54.742604	33.019946	1023.571137	-426.213116	107.300543	975.713432	-430.553318	134.350007	999.673157	-424.538599	148.415901	896.953892	-426.963763	255.688286	759.901565	-400.093701	251.082419	741.452332	-307.366168	231.763037	613.484466	-422.300843	244.611132	530.207986	-403.313190	213.616047	445.376246	-408.153623	246.866623	533.549101	-361.083223	189.849759	309.688742	-403.448239	129.417819	257.136962	-371.905921	416.464997	299.729269	-360.505620	345.288623	256.299203	-426.805809	-263.624961	977.719560	-235.221199	-82.611925	78.871407	-434.943347	-82.563164	78.969954	-37.493540	
1003	5.0150	473.150486	1421.503509	-101.083670	469.037690	1424.293654	-367.310661	431.033394	1486.426089	-229.105740	370.346714	1345.754583	-241.896434	504.493036	1096.214423	45.078165	712.607640	915.874719	-63.238082	513.326063	1116.828588	-531.823370	712.951532	914.177714	-430.687813	-139.374884	1207.725556	-228.097560	-4.271436	1289.741774	-377.824545	37.207902	1245.206917	-93.279275	34.728528	1212.221493	-365.556035	59.117269	1202.784025	-115.340505	-110.050002	1245.274844	-176.282123	-113.964158	1265.824019	-282.706421	6.264036	1121.857653	-55.538122	-44.032642	1124.514963	-413.848165	134.252869	1050.290677	-59.870446	217.261780	1024.004591	-73.177688	277.949705	963.900488	-75.361726	233.293465	1053.704464	-88.411091	372.846245	863.774409	-109.723493	357.562364	847.315298	-213.554163	281.500982	758.259108	-80.663284	241.073584	680.160379	-91.023127	169.280937	630.986175	-82.097037	253.379985	669.502921	-128.952840	79.165707	534.129762	-74.196337	14.387918	572.178541	-105.603414	123.616700	303.147582	-127.846830	63.091243	357.676074	-55.465370	31.929257	1019.664163	-428.047377	104.802714	969.602939	-432.783952	132.598614	992.891997	-427.055129	143.658633	889.466192	-428.813806	248.306640	750.668999	-401.513020	244.654270	729.850243	-310.640419	224.710405	604.379982	-423.753556	238.294864	521.641143	-404.573914	208.246246	436.158668	-409.112355	240.502340	524.983525	-362.260568	185.749429	300.670937	-403.849254	125.363095	247.925114	-371.790341	412.395480	289.358991	-360.279315	341.044891	246.337847	-426.723202	-263.574962	977.858519	-235.653015	-82.613092	78.861899	-434.939022	-82.571754	78.988813	-37.492150	
